<mxfile host="app.diagrams.net" modified="2023-08-09T03:23:00.969Z" agent="Mozilla/5.0 (Macintosh; Intel Mac OS X 10_15_7) AppleWebKit/537.36 (KHTML, like Gecko) Chrome/115.0.0.0 Safari/537.36" etag="R0ZceDF2RcQhQr5QuPFs" version="21.5.2" type="github">
  <diagram name="Page-1" id="ul6kPwYL3fbwKfYB2FC-">
    <mxGraphModel dx="795" dy="487" grid="1" gridSize="10" guides="1" tooltips="1" connect="1" arrows="1" fold="1" page="1" pageScale="1" pageWidth="850" pageHeight="1100" math="0" shadow="0">
      <root>
        <mxCell id="0" />
        <mxCell id="1" parent="0" />
        <mxCell id="An54QKQA540hxdG73TfZ-38" value="" style="edgeStyle=orthogonalEdgeStyle;rounded=0;orthogonalLoop=1;jettySize=auto;html=1;" edge="1" parent="1" source="An54QKQA540hxdG73TfZ-26" target="An54QKQA540hxdG73TfZ-24">
          <mxGeometry relative="1" as="geometry" />
        </mxCell>
        <mxCell id="An54QKQA540hxdG73TfZ-26" value="" style="sketch=0;outlineConnect=0;fontColor=#232F3E;gradientColor=none;fillColor=#232F3D;strokeColor=none;dashed=0;verticalLabelPosition=bottom;verticalAlign=top;align=center;html=1;fontSize=12;fontStyle=0;aspect=fixed;pointerEvents=1;shape=mxgraph.aws4.users;" vertex="1" parent="1">
          <mxGeometry x="460" y="130" width="40" height="40" as="geometry" />
        </mxCell>
        <mxCell id="An54QKQA540hxdG73TfZ-27" value="" style="group;spacingRight=0;spacingLeft=0;" vertex="1" connectable="0" parent="1">
          <mxGeometry x="50" y="190" width="680" height="390" as="geometry" />
        </mxCell>
        <mxCell id="An54QKQA540hxdG73TfZ-7" value="" style="group;align=center;" vertex="1" connectable="0" parent="An54QKQA540hxdG73TfZ-27">
          <mxGeometry width="680" height="390" as="geometry" />
        </mxCell>
        <mxCell id="An54QKQA540hxdG73TfZ-20" value="Availability Zone" style="fillColor=none;strokeColor=#147EBA;dashed=1;verticalAlign=top;fontStyle=0;fontColor=#147EBA;whiteSpace=wrap;html=1;align=right;" vertex="1" parent="An54QKQA540hxdG73TfZ-7">
          <mxGeometry x="387.2222222222222" y="78" width="245.55555555555554" height="260" as="geometry" />
        </mxCell>
        <mxCell id="An54QKQA540hxdG73TfZ-1" value="AWS Cloud" style="points=[[0,0],[0.25,0],[0.5,0],[0.75,0],[1,0],[1,0.25],[1,0.5],[1,0.75],[1,1],[0.75,1],[0.5,1],[0.25,1],[0,1],[0,0.75],[0,0.5],[0,0.25]];outlineConnect=0;gradientColor=none;html=1;whiteSpace=wrap;fontSize=12;fontStyle=0;container=1;pointerEvents=0;collapsible=0;recursiveResize=0;shape=mxgraph.aws4.group;grIcon=mxgraph.aws4.group_aws_cloud_alt;strokeColor=#232F3E;fillColor=none;verticalAlign=top;align=left;spacingLeft=30;fontColor=#232F3E;dashed=0;" vertex="1" parent="An54QKQA540hxdG73TfZ-7">
          <mxGeometry width="680" height="389.99999999999994" as="geometry" />
        </mxCell>
        <mxCell id="An54QKQA540hxdG73TfZ-5" value="Default VPC" style="points=[[0,0],[0.25,0],[0.5,0],[0.75,0],[1,0],[1,0.25],[1,0.5],[1,0.75],[1,1],[0.75,1],[0.5,1],[0.25,1],[0,1],[0,0.75],[0,0.5],[0,0.25]];outlineConnect=0;gradientColor=none;html=1;whiteSpace=wrap;fontSize=12;fontStyle=0;container=1;pointerEvents=0;collapsible=0;recursiveResize=0;shape=mxgraph.aws4.group;grIcon=mxgraph.aws4.group_vpc;strokeColor=#248814;fillColor=none;verticalAlign=top;align=left;spacingLeft=30;fontColor=#AAB7B8;dashed=0;" vertex="1" parent="An54QKQA540hxdG73TfZ-7">
          <mxGeometry x="28.333333333333336" y="23.399999999999995" width="623.3333333333333" height="343.2" as="geometry" />
        </mxCell>
        <mxCell id="An54QKQA540hxdG73TfZ-9" value="Public subnet" style="points=[[0,0],[0.25,0],[0.5,0],[0.75,0],[1,0],[1,0.25],[1,0.5],[1,0.75],[1,1],[0.75,1],[0.5,1],[0.25,1],[0,1],[0,0.75],[0,0.5],[0,0.25]];outlineConnect=0;gradientColor=none;html=1;whiteSpace=wrap;fontSize=12;fontStyle=0;container=1;pointerEvents=0;collapsible=0;recursiveResize=0;shape=mxgraph.aws4.group;grIcon=mxgraph.aws4.group_security_group;grStroke=0;strokeColor=#248814;fillColor=#E9F3E6;verticalAlign=top;align=right;spacingLeft=30;fontColor=#248814;dashed=0;" vertex="1" parent="An54QKQA540hxdG73TfZ-7">
          <mxGeometry x="406.1111111111111" y="104" width="207.77777777777777" height="216.66666666666669" as="geometry" />
        </mxCell>
        <mxCell id="An54QKQA540hxdG73TfZ-8" value="Public subnet" style="points=[[0,0],[0.25,0],[0.5,0],[0.75,0],[1,0],[1,0.25],[1,0.5],[1,0.75],[1,1],[0.75,1],[0.5,1],[0.25,1],[0,1],[0,0.75],[0,0.5],[0,0.25]];outlineConnect=0;gradientColor=none;html=1;whiteSpace=wrap;fontSize=12;fontStyle=0;container=1;pointerEvents=0;collapsible=0;recursiveResize=0;shape=mxgraph.aws4.group;grIcon=mxgraph.aws4.group_security_group;grStroke=0;strokeColor=#248814;fillColor=#E9F3E6;verticalAlign=top;align=left;spacingLeft=30;fontColor=#248814;dashed=0;" vertex="1" parent="An54QKQA540hxdG73TfZ-7">
          <mxGeometry x="66.11111111111111" y="104" width="207.77777777777777" height="216.66666666666669" as="geometry" />
        </mxCell>
        <mxCell id="An54QKQA540hxdG73TfZ-11" value="" style="sketch=0;outlineConnect=0;fontColor=#232F3E;gradientColor=none;fillColor=#D45B07;strokeColor=none;dashed=0;verticalLabelPosition=bottom;verticalAlign=top;align=center;html=1;fontSize=12;fontStyle=0;aspect=fixed;pointerEvents=1;shape=mxgraph.aws4.instances;" vertex="1" parent="An54QKQA540hxdG73TfZ-7">
          <mxGeometry x="156.77777777777777" y="161.2" width="41.37360544217687" height="41.37360544217687" as="geometry" />
        </mxCell>
        <mxCell id="An54QKQA540hxdG73TfZ-12" value="" style="sketch=0;outlineConnect=0;fontColor=#232F3E;gradientColor=none;fillColor=#D45B07;strokeColor=none;dashed=0;verticalLabelPosition=bottom;verticalAlign=top;align=center;html=1;fontSize=12;fontStyle=0;aspect=fixed;pointerEvents=1;shape=mxgraph.aws4.instances;" vertex="1" parent="An54QKQA540hxdG73TfZ-7">
          <mxGeometry x="477.8888888888889" y="161.2" width="41.37360544217687" height="41.37360544217687" as="geometry" />
        </mxCell>
        <mxCell id="An54QKQA540hxdG73TfZ-15" style="edgeStyle=orthogonalEdgeStyle;rounded=0;orthogonalLoop=1;jettySize=auto;html=1;" edge="1" parent="An54QKQA540hxdG73TfZ-7" source="An54QKQA540hxdG73TfZ-14" target="An54QKQA540hxdG73TfZ-12">
          <mxGeometry relative="1" as="geometry" />
        </mxCell>
        <mxCell id="An54QKQA540hxdG73TfZ-16" style="edgeStyle=orthogonalEdgeStyle;rounded=0;orthogonalLoop=1;jettySize=auto;html=1;" edge="1" parent="An54QKQA540hxdG73TfZ-7" source="An54QKQA540hxdG73TfZ-14" target="An54QKQA540hxdG73TfZ-11">
          <mxGeometry relative="1" as="geometry" />
        </mxCell>
        <mxCell id="An54QKQA540hxdG73TfZ-14" value="" style="sketch=0;points=[[0,0,0],[0.25,0,0],[0.5,0,0],[0.75,0,0],[1,0,0],[0,1,0],[0.25,1,0],[0.5,1,0],[0.75,1,0],[1,1,0],[0,0.25,0],[0,0.5,0],[0,0.75,0],[1,0.25,0],[1,0.5,0],[1,0.75,0]];outlineConnect=0;fontColor=#232F3E;gradientColor=#F78E04;gradientDirection=north;fillColor=#D05C17;strokeColor=#ffffff;dashed=0;verticalLabelPosition=bottom;verticalAlign=top;align=center;html=1;fontSize=12;fontStyle=0;aspect=fixed;shape=mxgraph.aws4.resourceIcon;resIcon=mxgraph.aws4.elastic_load_balancing;" vertex="1" parent="An54QKQA540hxdG73TfZ-7">
          <mxGeometry x="320" y="70" width="40" height="40" as="geometry" />
        </mxCell>
        <mxCell id="An54QKQA540hxdG73TfZ-19" value="Availability Zone" style="fillColor=none;strokeColor=#147EBA;dashed=1;verticalAlign=top;fontStyle=0;fontColor=#147EBA;whiteSpace=wrap;html=1;align=left;" vertex="1" parent="An54QKQA540hxdG73TfZ-7">
          <mxGeometry x="47.22222222222222" y="78" width="245.55555555555554" height="260" as="geometry" />
        </mxCell>
        <mxCell id="An54QKQA540hxdG73TfZ-17" value="Application Load Balancer" style="text;html=1;align=center;verticalAlign=middle;resizable=0;points=[];autosize=1;strokeColor=none;fillColor=none;fontSize=10;" vertex="1" parent="An54QKQA540hxdG73TfZ-7">
          <mxGeometry x="271.3666666666666" y="109.84333333333333" width="140" height="30" as="geometry" />
        </mxCell>
        <mxCell id="An54QKQA540hxdG73TfZ-34" style="edgeStyle=orthogonalEdgeStyle;rounded=0;orthogonalLoop=1;jettySize=auto;html=1;" edge="1" parent="An54QKQA540hxdG73TfZ-7" source="An54QKQA540hxdG73TfZ-24">
          <mxGeometry relative="1" as="geometry">
            <mxPoint x="340.0001133786848" y="70" as="targetPoint" />
          </mxGeometry>
        </mxCell>
        <mxCell id="An54QKQA540hxdG73TfZ-24" value="" style="sketch=0;outlineConnect=0;fontColor=#232F3E;gradientColor=none;fillColor=#4D27AA;strokeColor=none;dashed=0;verticalLabelPosition=bottom;verticalAlign=top;align=center;html=1;fontSize=12;fontStyle=0;aspect=fixed;pointerEvents=1;shape=mxgraph.aws4.internet_gateway;spacingRight=0;spacingLeft=0;" vertex="1" parent="An54QKQA540hxdG73TfZ-7">
          <mxGeometry x="322.76111111111106" y="8.666666666666673" width="34.47800453514739" height="34.47800453514739" as="geometry" />
        </mxCell>
        <mxCell id="An54QKQA540hxdG73TfZ-40" value="EC2 Instances" style="text;html=1;align=center;verticalAlign=middle;resizable=0;points=[];autosize=1;strokeColor=none;fillColor=none;fontSize=10;" vertex="1" parent="An54QKQA540hxdG73TfZ-7">
          <mxGeometry x="453.58" y="202.57" width="90" height="30" as="geometry" />
        </mxCell>
        <mxCell id="An54QKQA540hxdG73TfZ-39" value="EC2 Instances" style="text;html=1;align=center;verticalAlign=middle;resizable=0;points=[];autosize=1;strokeColor=none;fillColor=none;fontSize=10;" vertex="1" parent="An54QKQA540hxdG73TfZ-7">
          <mxGeometry x="132.46" y="202.57" width="90" height="30" as="geometry" />
        </mxCell>
        <mxCell id="An54QKQA540hxdG73TfZ-10" value="" style="sketch=0;points=[[0,0,0],[0.25,0,0],[0.5,0,0],[0.75,0,0],[1,0,0],[0,1,0],[0.25,1,0],[0.5,1,0],[0.75,1,0],[1,1,0],[0,0.25,0],[0,0.5,0],[0,0.75,0],[1,0.25,0],[1,0.5,0],[1,0.75,0]];outlineConnect=0;fontColor=#232F3E;gradientColor=#F78E04;gradientDirection=north;fillColor=#D05C17;strokeColor=#ffffff;dashed=0;verticalLabelPosition=bottom;verticalAlign=top;align=center;html=1;fontSize=12;fontStyle=0;aspect=fixed;shape=mxgraph.aws4.resourceIcon;resIcon=mxgraph.aws4.auto_scaling2;" vertex="1" parent="An54QKQA540hxdG73TfZ-27">
          <mxGeometry x="320" y="160" width="40" height="40" as="geometry" />
        </mxCell>
        <mxCell id="An54QKQA540hxdG73TfZ-18" value="Autoscaling Group" style="text;html=1;align=center;verticalAlign=middle;resizable=0;points=[];autosize=1;strokeColor=none;fillColor=none;fontSize=11;" vertex="1" parent="An54QKQA540hxdG73TfZ-27">
          <mxGeometry x="284.99555555555554" y="202.58" width="110" height="30" as="geometry" />
        </mxCell>
        <mxCell id="An54QKQA540hxdG73TfZ-23" value="" style="fillColor=none;strokeColor=#5A6C86;dashed=1;verticalAlign=top;fontStyle=0;fontColor=#5A6C86;whiteSpace=wrap;html=1;" vertex="1" parent="An54QKQA540hxdG73TfZ-27">
          <mxGeometry x="130" y="147.33" width="420" height="86.67" as="geometry" />
        </mxCell>
        <mxCell id="An54QKQA540hxdG73TfZ-42" value="Users" style="text;html=1;align=center;verticalAlign=middle;resizable=0;points=[];autosize=1;strokeColor=none;fillColor=none;" vertex="1" parent="1">
          <mxGeometry x="490" y="150" width="50" height="30" as="geometry" />
        </mxCell>
      </root>
    </mxGraphModel>
  </diagram>
</mxfile>
